<svg width="22" height="24" viewBox="0 0 22 24" fill="none" xmlns="http://www.w3.org/2000/svg">
<path d="M17.2944 14.8224L16.4729 14.3481L18.6742 13.7583L18.3103 12.4006L14.7513 13.3542L13.0727 12.385C13.0958 12.26 13.1086 12.1315 13.1086 12C13.1086 11.8684 13.0959 11.7398 13.0727 11.6149L14.7513 10.6457L18.3103 11.5994L18.6742 10.2416L16.4729 9.65177L17.2944 9.17747L20.8195 8.96588L21.3386 6.03095L18.5374 5.01305L16.5915 7.96016L15.7701 8.43446L16.3599 6.23317L15.0022 5.86939L14.0485 9.42842L12.3689 10.3982C12.1742 10.2315 11.9491 10.0997 11.7029 10.0124V8.0742L14.3083 5.46879L13.3144 4.47488L11.7029 6.08633V5.13772L13.2774 1.98876L11.0001 0L8.72284 1.98886L10.2973 5.13782V6.08642L8.68583 4.47497L7.69192 5.46889L10.2973 8.0743V10.0125C10.0511 10.0998 9.82602 10.2316 9.63134 10.3983L7.95167 9.42852L6.99806 5.86949L5.64032 6.23326L6.23017 8.43456L5.40868 7.96025L3.46283 5.01314L0.661621 6.03104L1.18072 8.96597L4.70591 9.17757L5.5274 9.65187L3.32611 10.2417L3.68993 11.5994L7.24896 10.6458L8.9276 11.615C8.90445 11.74 8.89171 11.8685 8.89171 12C8.89171 12.1316 8.9044 12.2602 8.9276 12.3851L7.24896 13.3543L3.68993 12.4006L3.32611 13.7584L5.5274 14.3482L4.70591 14.8225L1.18072 15.034L0.661621 17.969L3.46288 18.9869L5.40872 16.0397L6.23026 15.5654L5.64042 17.7667L6.99815 18.1306L7.95177 14.5715L9.63144 13.6018C9.82611 13.7684 10.0512 13.9003 10.2974 13.9875V15.9258L7.69201 18.5311L8.68592 19.525L10.2974 17.9135V18.8621L8.72294 22.0111L11.0002 24L13.2775 22.0111L11.703 18.8621V17.9135L13.3145 19.525L14.3084 18.5311L11.7031 15.9258V13.9875C11.9493 13.9003 12.1743 13.7684 12.369 13.6018L14.0487 14.5715L15.0023 18.1306L16.36 17.7667L15.7702 15.5654L16.5917 16.0397L18.5376 18.9869L21.3388 17.969L20.8197 15.034L17.2944 14.8224Z" fill="#FF4646"/>
</svg>
